{"title":"Silent.Hill.Revelation.2012.TS.XViD.AC3-UNiQUE","uid":7812310,"size":1476150348,"categoryP":"video","categoryS":"movies","magnet":"?xt=urn:btih:146b5f57e7a033b3241861641ccfc13583193298&amp;dn=Silent.Hill.Revelation.2012.TS.XViD.AC3-UNiQUE&amp;tr=udp%3A%2F%2Ftracker.openbittorrent.com%3A80&amp;tr=udp%3A%2F%2Fopen.demonii.com%3A1337&amp;tr=udp%3A%2F%2Ftracker.coppersurfer.tk%3A6969&amp;tr=udp%3A%2F%2Fexodus.desync.com%3A6969","seeders":1,"leechers":0,"uploader":".BONE.","files":3,"time":1352564777,"description":"Silent.Hill.Revelation.2012.TS.XViD.AC3-UNiQUE\n\n\n &lt;a href=&quot;\nhttp://www.imdb.com/title/tt0938330/&quot; rel=&quot;nofollow&quot; target=&quot;_NEW&quot;&gt;\nhttp://www.imdb.com/title/tt0938330/&lt;/a&gt;\n\n\nRatings..: 6.4/10 from 5,090 users\nMetascore: 14/100\nReviews..: 65 user | 48 critic | 11 from Metacritic.com\n\nDirector.: Michael J. Bassett\nWriter...: Michael J. Bassett\nStars....: Adelaide Clemens, Kit Harington and Sean Bean\n\n\nPLOT\nWhen her father disappears, Heather Mason is drawn into a strange and terrifying alternate\nreality that holds answers to the horrific nightmares that have plagued her since childhood.\n\n\nSOURCES\nVideo...: MATiNE 720p - Thanks\nAudio...: Jiinx - Thanks bro\n\n\nNOTES\nVery watchable cam still some dark scenes but nice audio so what we gonna complain about now\nDropped the saturation, changed rgb, dropped that bloody awful brightness, then levels filter\nCheck sample\nEnjoy\n\n\n\nGreets\n\nINSPiRAL,LEGION,DQ1,ETRG,CM8.......\nand thats definetly it !!!!!!!!!!!!\n\n\n\n\nFormat : AVI\nFormat/Info : Audio Video Interleave\nFile size : 1.35 GiB\nDuration : 1h 26mn\nOverall bit rate : 2 225 Kbps\nWriting library : VirtualDub build 34807/release\n\nVideo\nID : 0\nFormat : MPEG-4 Visual\nFormat profile : Advanced Simple@L5\nFormat settings, BVOP : 2\nFormat settings, QPel : No\nFormat settings, GMC : No warppoints\nFormat settings, Matrix : Default (H.263)\nMuxing mode : Packed bitstream\nCodec ID : XVID\nCodec ID/Hint : XviD\nDuration : 1h 26mn\nBit rate : 2 087 Kbps\nWidth : 720 pixels\nHeight : 304 pixels\nDisplay aspect ratio : 2.35:1\nFrame rate : 25.000 fps\nColor space : YUV\nChroma subsampling : 4:2:0\nBit depth : 8 bits\nScan type : Progressive\nCompression mode : Lossy\nBits/(Pixel*Frame) : 0.381\nStream size : 1.27 GiB (94%)\nWriting library : XviD 64\n\nAudio\nID : 1\nFormat : AC-3\nFormat/Info : Audio Coding 3\nMode extension : CM (complete main)\nFormat settings, Endianness : Big\nCodec ID : 2000\nDuration : 1h 26mn\nBit rate mode : Constant\nBit rate : 128 Kbps\nChannel(s) : 2 channels\nChannel positions : Front: L R\nSampling rate : 48.0 KHz\nBit depth : 16 bits\nCompression mode : Lossy\nStream size : 79.6 MiB (6%)\nAlignment : Split accross interleaves\nInterleave, duration : 40 ms (1.00 video frame)\nInterleave, preload duration : 500 ms\n\n &lt;a href=&quot;\nhttp://img23.binimage.org/89/4f/dc/kpl5r.png&quot; rel=&quot;nofollow&quot; target=&quot;_NEW&quot;&gt;\nhttp://img23.binimage.org/89/4f/dc/kpl5r.png&lt;/a&gt; &lt;a href=&quot;\nhttp://img23.binimage.org/5f/54/f5/n5eqv.png&quot; rel=&quot;nofollow&quot; target=&quot;_NEW&quot;&gt;\nhttp://img23.binimage.org/5f/54/f5/n5eqv.png&lt;/a&gt; &lt;a href=&quot;\nhttp://img23.binimage.org/0e/0d/d4/nt4la.png&quot; rel=&quot;nofollow&quot; target=&quot;_NEW&quot;&gt;\nhttp://img23.binimage.org/0e/0d/d4/nt4la.png&lt;/a&gt; &lt;a href=&quot;\nhttp://img23.binimage.org/0e/0d/d4/nt4la.png&quot; rel=&quot;nofollow&quot; target=&quot;_NEW&quot;&gt;\nhttp://img23.binimage.org/0e/0d/d4/nt4la.png&lt;/a&gt; &lt;a href=&quot;\nhttp://img23.binimage.org/4b/8a/1f/p4kjf.png&quot; rel=&quot;nofollow&quot; target=&quot;_NEW&quot;&gt;\nhttp://img23.binimage.org/4b/8a/1f/p4kjf.png&lt;/a&gt; &lt;a href=&quot;\nhttp://img23.binimage.org/c8/ab/12/rdoxf.png&quot; rel=&quot;nofollow&quot; target=&quot;_NEW&quot;&gt;\nhttp://img23.binimage.org/c8/ab/12/rdoxf.png&lt;/a&gt;","torrent":{"xt":"urn:btih:146b5f57e7a033b3241861641ccfc13583193298","amp;dn":"Silent.Hill.Revelation.2012.TS.XViD.AC3-UNiQUE","amp;tr":["udp%3A%2F%2Ftracker.openbittorrent.com%3A80","udp%3A%2F%2Fopen.demonii.com%3A1337","udp%3A%2F%2Ftracker.coppersurfer.tk%3A6969","udp%3A%2F%2Fexodus.desync.com%3A6969"],"infoHash":"146b5f57e7a033b3241861641ccfc13583193298","infoHashBuffer":{"type":"Buffer","data":[20,107,95,87,231,160,51,179,36,24,97,100,28,207,193,53,131,25,50,152]},"announce":[],"urlList":[]}}